<svg width="539" height="748" viewBox="0 0 539 748" fill="none" xmlns="http://www.w3.org/2000/svg">
<g clip-path="url(#clip0_315_72)">
<path fill-rule="evenodd" clip-rule="evenodd" d="M10.2006 312.142C5.28489 309.705 -1.26829 312.532 1.4654 318.975C4.39366 325.876 15.2203 325.961 21.3346 325.824C20.7227 325.792 18.752 319.464 18.0773 318.508C16.0876 315.688 13.2227 313.643 10.2006 312.142ZM66.8385 435.859C66.9395 435.958 68.0787 436.919 66.8385 435.859ZM5.46516 343.353C2.58851 345.552 2.45131 349.434 4.80116 352.062C7.59928 355.191 12.7086 355.077 16.5225 354.772C18.2477 354.634 27.4596 353.896 25.2761 352.389C25.4441 352.452 25.7948 352.606 26.1702 352.815C26.3722 353.554 26.5844 354.289 26.8055 355.021C26.7513 355.053 26.7051 355.087 26.6472 355.119C26.7099 355.091 26.7539 355.061 26.8092 355.033C29.0244 362.353 32.1777 369.322 36.3067 375.842C34.7618 375.233 33.1618 374.773 31.539 374.568C26.7332 373.96 16.6234 377.695 21.999 384.093C27.1535 390.227 35.1781 383.646 41.0279 382.739C46.7021 390.658 52.9581 398.247 59.5143 405.583C59.1126 405.709 58.76 405.971 58.558 406.379C55.9278 405.045 53.187 403.136 50.7528 402.619C47.2402 401.874 40.0374 401.423 37.3826 404.567C34.1172 408.433 37.6175 411.573 41.4753 412.315C47.0693 413.39 54.392 410.657 59.7747 408.81C60.3904 408.919 61.0626 408.739 61.4641 408.247C61.583 408.208 61.7019 408.169 61.8177 408.132C68.4571 415.432 75.3505 422.491 82.2019 429.395C82.129 429.391 82.0561 429.387 81.98 429.383C80.1928 428.211 78.2757 427.249 76.1978 426.745C71.3909 425.574 65.7353 425.568 61.8344 429.046C57.9488 432.509 56.5723 438.566 60.5922 442.455C68.6385 450.239 80.4936 432.49 84.5523 431.749C91.5149 438.692 98.8772 445.179 106.355 451.534C105.506 451.276 104.635 451.086 103.735 451C96.402 450.298 79.1905 459.288 88.1896 468.133C96.0317 475.84 105.108 461.005 111.428 455.817C118.475 461.741 125.56 467.624 132.446 473.737C128.69 472.74 125.061 472.593 121.035 473.809C116.869 475.07 110.146 478.216 112.78 483.84C115.458 489.56 123.531 486.957 127.735 485.141C130.028 484.151 134.626 480.808 138.663 479.4C149.651 489.774 159.169 501.2 166.375 514.661C170.873 523.065 174.287 532.044 176.689 541.273C178.223 547.163 181.245 557.056 180.64 564.723C183.524 549.377 178.31 530.946 172.693 517.229C167.529 504.616 159.8 493.543 150.747 483.576C153.019 476.743 172.14 466.888 160.709 460.54C154.639 457.184 148.422 462.753 147.095 468.652C146.183 472.705 147.572 477.798 149.045 481.733C146.198 478.694 143.237 475.754 140.186 472.911C135.97 468.982 131.654 465.166 127.295 461.399C134.477 454.652 141.274 435.364 131.645 432.21C117.425 427.565 124.272 453.874 125.264 458.806C125.545 458.822 125.765 458.737 125.926 458.555C125.847 459.006 125.754 459.489 125.641 459.976C117.3 452.803 108.834 445.772 100.648 438.428C101.386 437.883 102.558 435.8 103.48 434.691C105.559 432.192 107.549 429.581 109.004 426.657C111.301 422.036 113.516 414.666 107.427 411.949C100.804 408.987 97.6575 417.323 97.6113 422.296C97.5798 425.735 98.5165 429.002 99.0044 432.373C99.1568 433.424 98.5696 438.163 100.002 436.125C99.9343 436.876 99.9245 437.421 99.9581 437.807C98.4883 436.482 97.03 435.142 95.5809 433.793C95.6479 433.623 95.6977 433.437 95.709 433.222C95.7867 431.739 94.2949 431.168 93.2487 431.602C91.3365 429.785 89.443 427.945 87.5833 426.069C83.6418 422.093 79.643 418.004 75.672 413.828C76.5335 413.087 76.1908 412.062 76.9966 411.277C77.801 410.493 79.3854 410.059 80.3313 409.331C82.7105 407.498 84.6835 404.828 86.1103 402.2C88.466 397.858 91.5103 388.75 84.6286 386.681C77.5354 384.544 73.9351 393.312 73.479 398.794C73.3902 399.856 74.1854 409.424 74.7941 412.899C67.4462 405.137 60.2192 397.085 53.6716 388.892C55.6568 388.874 61.2853 384.806 62.4231 383.696C65.1995 380.989 69.6129 375.008 64.7455 371.842C60.4176 369.034 55.083 373.101 53.2323 377.053C52.9281 377.704 51.8555 383.761 51.7718 386.479C49.0618 383.004 46.4767 379.51 44.0716 376.004C42.4677 373.673 40.9688 371.28 39.5665 368.837C39.9041 368.646 40.2217 368.312 40.5216 367.897C47.7397 366.672 56.9423 355.41 48.464 351.491C44.4273 349.628 40.0496 353.474 38.0722 356.623C37.6671 357.267 37.0109 360.506 36.4769 363.061C32.4424 354.966 29.3593 346.397 27.0127 337.611C27.6411 337.455 28.1732 336.975 28.2434 336.149C31.7478 334.151 34.5151 332.488 36.9615 328.646C38.4813 326.26 41.2183 320.808 36.7527 319.483C30.9413 317.76 27.2909 326.636 26.8155 331.008C26.7601 331.516 26.7621 332.992 26.7813 334.344C26.5795 334.317 26.3756 334.32 26.1755 334.355C24.8408 328.915 23.7755 323.404 22.9282 317.885C26.1001 316.864 26.6486 300.206 24.5367 297.834C19.8161 292.523 16.4857 300.195 16.7377 304.249C17.0355 309.03 19.2019 313.38 21.7817 317.239C22.0585 317.648 21.9795 317.628 22.0512 317.059C22.0908 317.34 22.185 317.548 22.3247 317.698C22.1915 320.215 21.9321 322.792 22.0567 325.019C22.4139 331.396 23.1568 337.811 24.2354 344.106C24.4977 345.637 24.7982 347.156 25.1351 348.661C22.5856 346.489 19.1483 344.559 17.8033 343.956C14.3124 342.391 8.93252 340.702 5.46516 343.353ZM181.049 564.745C180.887 566.968 180.486 569.005 179.737 570.684C180.299 568.772 180.73 566.785 181.049 564.745Z" fill="#F2F2F2"/>
<g opacity="0.7">
<path fill-rule="evenodd" clip-rule="evenodd" d="M105.822 462.77C119.474 462.062 136.359 470.031 137.815 484.871C138.873 495.653 138.546 506.405 140.183 517.171C141.492 525.776 144.261 534.036 148.038 541.874C151.67 549.411 159.203 555.827 161.162 563.879C162.411 569.01 161.712 576.227 159.99 581.245C157.896 587.347 159.009 586.865 163.182 591.985C171.359 602.018 178.723 612.307 183.93 624.29C191.43 641.55 196.348 661.725 193.564 680.618C193.21 683.017 192.79 691.627 189.486 692.229C185.796 692.902 187.522 687.978 187.719 686.387C188.974 676.238 190.09 667.366 188.575 657.059C182.732 617.288 154.201 591.085 135.623 557.331C134.602 555.59 132.446 551.445 130.947 548.711C128.58 544.393 126.201 536.179 122.997 532.977C116.963 526.947 122.511 539.071 123.686 541.385C125.173 544.313 126.808 547.425 128.332 549.99C135.302 561.882 143.082 574.862 150.28 587.12C119.147 594.214 97.2209 556.785 88.8661 532.178C81.9824 511.904 73.7464 464.505 105.822 462.77Z" fill="#69A1AC"/>
<path fill-rule="evenodd" clip-rule="evenodd" d="M288.806 425.121C265.983 426.932 251.331 441.992 244.511 463.055C240.835 474.407 240.414 486.068 238.371 497.734C235.298 515.284 228.686 528.585 215.764 541.089C211.762 544.961 208.813 548.937 206.716 553.191C202.554 557.438 198.931 562.244 196.269 568.12C192.869 575.624 191.907 584.628 195.833 592.109C196.888 594.12 199.522 598.158 202.251 599.992C192.033 621.752 186.416 645.584 187.049 669.386C187.431 683.753 188.133 698.127 188.951 712.477C189.171 716.33 190.426 722.693 192.311 716.231C194.036 710.32 191.873 701.041 191.673 694.866C190.699 664.786 189.866 637.435 202.249 609.331C203.547 606.385 204.924 603.463 206.358 600.565C206.442 600.516 206.52 600.457 206.599 600.4C206.654 600.442 206.704 600.487 206.758 600.529C206.85 600.365 206.975 600.171 207.122 599.954C207.533 599.529 207.892 598.993 208.233 598.395C209.332 596.872 210.575 595.084 210.581 594.105C210.581 594.098 210.577 594.086 210.577 594.078C218.243 581.565 227.023 569.742 235.991 558.149C235.924 558.234 245.719 544.897 244.204 552.272C243.474 555.827 236.269 562.595 233.36 566.36C226.923 574.735 219.364 585.348 213.082 595.61C212.237 596.095 211.043 598.48 210.179 600.257C209.703 601.157 209.258 602.064 208.82 602.855C231.077 610.208 248.39 595.396 260.196 578.168C260.211 578.147 260.223 578.126 260.237 578.106C263.829 573.345 267.51 568.618 272.107 564.855C279.778 558.576 287.993 557.468 297.037 554.378C321.7 545.951 332.187 513.987 335.517 490.27C339.274 463.513 320.895 422.483 288.806 425.121Z" fill="#89C5CC"/>
<path fill-rule="evenodd" clip-rule="evenodd" d="M243.723 350.19C220.299 374.569 208.982 408.383 200.022 440.172C190.014 475.676 183.403 511.728 183.149 548.642C182.983 572.895 182.323 597.299 183.739 621.523C184.241 630.126 185.099 638.745 186.462 647.255C186.575 647.955 189.626 666.958 192.545 662.53C194.205 660.012 189.417 642.817 189.056 639.953C187.021 623.822 186.548 607.573 186.647 591.326C186.81 564.575 186.021 537.962 188.733 511.309C189.137 507.33 189.457 503.151 190.402 499.258C191.406 495.119 190.127 496.926 193.396 495.287C196.573 493.694 200.498 493.922 203.794 491.924C216.866 483.997 223.553 463.635 228.758 450.275C234.711 434.998 238.329 418.706 241.219 402.628C243.341 390.816 244.858 379.075 245.716 367.11C245.987 363.339 246.003 359.396 246.744 355.688C246.944 354.688 247.945 352.919 247.909 352.033C247.832 350.158 246.701 349.056 246.608 347.481C245.627 348.363 244.665 349.267 243.723 350.19Z" fill="#89C5CC"/>
<path fill-rule="evenodd" clip-rule="evenodd" d="M116 675C116 715.317 148.684 748 189 748C229.317 748 262 715.317 262 675" fill="#89C5CC"/>
<path fill-rule="evenodd" clip-rule="evenodd" d="M194.858 675.232H191C191.268 670.393 191.622 665.562 192.431 660.776C195.525 642.473 205.2 615.591 226.421 612.62C227.204 612.51 230.083 612.491 233.572 612.696C235.225 611.772 237.077 611.213 239.028 611.085C257.095 609.753 277.272 624.328 285.987 639.497C293.012 651.726 291.828 667.785 287.489 680.778C284.583 689.476 278.241 701.878 267.665 701.999C254.433 702.15 253.795 685.796 253.539 676.236C253.199 663.525 251.593 652.453 241.578 643.789C239.244 641.771 236.692 639.995 234.334 638.005C230.642 634.89 226.562 631.7 226.087 626.546C225.43 619.436 229.444 618.156 235.572 619.477C236.616 619.702 247.139 624.424 245.581 620.692C245.106 619.552 243.368 618.648 241.175 617.971C235.501 617.354 228.734 616.638 226.788 617.066C205.792 621.672 197.618 650.755 195.447 669.233C195.212 671.227 195.023 673.228 194.858 675.232Z" fill="#69A1AC"/>
</g>
</g>
<path opacity="0.2" fill-rule="evenodd" clip-rule="evenodd" d="M470.216 12.041C473.728 10.2999 478.408 12.3192 476.456 16.922C474.364 21.8508 466.631 21.9117 462.263 21.814C462.701 21.7911 464.108 17.2713 464.59 16.5883C466.011 14.5735 468.058 13.1133 470.216 12.041ZM429.787 101.848C429.686 101.948 428.547 102.909 429.787 101.848ZM474.297 34.925C476.397 36.514 476.495 39.3214 474.779 41.2225C472.735 43.4858 469.004 43.4053 466.22 43.1863C464.96 43.0871 458.234 42.5571 459.829 41.4663C459.706 41.5122 459.45 41.6237 459.176 41.7751C459.028 42.309 458.873 42.8409 458.712 43.3705C458.751 43.3934 458.785 43.418 458.827 43.4407C458.781 43.4209 458.749 43.3994 458.709 43.3793C457.089 48.6725 454.784 53.713 451.767 58.429C452.895 57.9886 454.063 57.655 455.248 57.5062C458.757 57.0649 466.137 59.7617 462.21 64.3905C458.444 68.828 452.588 64.0723 448.317 63.4182C444.171 69.1466 439.6 74.6368 434.811 79.9436C435.104 80.0345 435.361 80.2239 435.509 80.5189C437.43 79.5531 439.431 78.1717 441.209 77.7971C443.774 77.2573 449.033 76.9282 450.97 79.2007C453.353 81.995 450.796 84.267 447.979 84.8046C443.894 85.5842 438.549 83.6106 434.619 82.2773C434.17 82.3562 433.679 82.2263 433.386 81.8703C433.299 81.8422 433.213 81.8145 433.128 81.7876C428.278 87.0686 423.242 92.1754 418.237 97.1704C418.29 97.1676 418.343 97.1643 418.399 97.1614C419.704 96.3132 421.104 95.617 422.622 95.252C426.132 94.403 430.261 94.3968 433.108 96.9103C435.944 99.4131 436.947 103.792 434.01 106.606C428.132 112.237 419.483 99.4078 416.52 98.8736C411.434 103.896 406.056 108.59 400.594 113.188C401.214 113.001 401.85 112.863 402.507 112.801C407.861 112.291 420.425 118.785 413.851 125.184C408.122 130.76 401.5 120.036 396.888 116.287C391.741 120.573 386.565 124.83 381.535 129.252C384.278 128.53 386.928 128.422 389.867 129.3C392.908 130.211 397.815 132.483 395.891 136.551C393.933 140.688 388.04 138.809 384.971 137.497C383.297 136.782 379.941 134.366 376.994 133.35C368.967 140.855 362.014 149.121 356.748 158.857C353.46 164.936 350.964 171.43 349.206 178.104C348.084 182.364 345.874 189.518 346.313 195.062C344.213 183.966 348.027 170.637 352.133 160.717C355.909 151.594 361.556 143.584 368.169 136.374C366.513 131.434 352.555 124.315 360.904 119.72C365.337 117.291 369.875 121.316 370.842 125.581C371.506 128.511 370.49 132.195 369.412 135.04C371.493 132.842 373.655 130.715 375.884 128.658C378.964 125.815 382.117 123.055 385.301 120.329C380.059 115.453 375.104 101.509 382.136 99.224C392.52 95.86 387.511 114.887 386.785 118.453C386.579 118.465 386.419 118.404 386.301 118.272C386.359 118.598 386.427 118.947 386.509 119.299C392.602 114.11 398.785 109.022 404.765 103.709C404.227 103.315 403.371 101.809 402.699 101.008C401.182 99.2013 399.73 97.3142 398.669 95.2004C396.993 91.8602 395.379 86.5317 399.826 84.5642C404.662 82.4206 406.957 88.447 406.988 92.0427C407.01 94.5295 406.325 96.8922 405.968 99.33C405.856 100.09 406.283 103.517 405.238 102.043C405.287 102.587 405.294 102.98 405.269 103.259C406.343 102.301 407.408 101.332 408.467 100.356C408.418 100.232 408.382 100.098 408.373 99.9424C408.317 98.8705 409.407 98.457 410.17 98.7706C411.567 97.4559 412.95 96.1247 414.309 94.7671C417.188 91.8908 420.109 88.9324 423.01 85.9111C422.382 85.3762 422.632 84.635 422.044 84.0671C421.457 83.5005 420.3 83.1875 419.61 82.6613C417.874 81.3369 416.434 79.4069 415.393 77.5073C413.675 74.3686 411.455 67.7836 416.481 66.2846C421.661 64.7372 424.286 71.0757 424.617 75.0393C424.682 75.8072 424.097 82.7266 423.652 85.2393C429.02 79.6243 434.299 73.7988 439.083 67.8722C437.633 67.8597 433.525 64.9206 432.695 64.1185C430.669 62.162 427.449 57.8383 431.004 55.5475C434.165 53.5158 438.058 56.4543 439.408 59.3114C439.63 59.7818 440.411 64.1612 440.471 66.1263C442.451 63.6131 444.34 61.0851 446.097 58.5491C447.269 56.8631 448.364 55.1325 449.389 53.3652C449.143 53.227 448.911 52.9858 448.692 52.6859C443.422 51.8027 436.707 43.6626 442.899 40.8261C445.847 39.4773 449.042 42.2567 450.485 44.5329C450.78 44.9986 451.258 47.3403 451.647 49.1874C454.596 43.3329 456.85 37.1353 458.567 30.7812C458.108 30.6686 457.72 30.3217 457.669 29.7247C455.111 28.2814 453.091 27.0795 451.306 24.3024C450.197 22.5775 448.201 18.6363 451.462 17.6769C455.706 16.4286 458.368 22.8456 458.713 26.0068C458.753 26.3737 458.751 27.441 458.737 28.4191C458.884 28.3991 459.033 28.4013 459.179 28.4268C460.156 24.4923 460.936 20.5072 461.556 16.5155C459.241 15.7785 458.846 3.73334 460.389 2.01744C463.838 -1.82467 466.267 3.72167 466.081 6.65378C465.862 10.111 464.279 13.2567 462.394 16.0486C462.191 16.3443 462.249 16.3299 462.197 15.9182C462.168 16.1217 462.099 16.2719 461.997 16.3808C462.093 18.2005 462.282 20.0635 462.19 21.6739C461.927 26.2855 461.382 30.9241 460.592 35.4767C460.4 36.5839 460.18 37.6821 459.933 38.7708C461.796 37.1993 464.306 35.8027 465.288 35.3658C467.838 34.2331 471.767 33.0095 474.297 34.925ZM345.896 194.624C346.019 196.106 346.385 197.458 347.104 198.566C346.576 197.3 346.18 195.981 345.896 194.624Z" fill="#C1DEE2"/>
<g opacity="0.5">
<path fill-rule="evenodd" clip-rule="evenodd" d="M438.223 163.04C442.425 157.048 450.224 141.83 456.138 139.689C459.948 138.31 458.837 152.575 458.884 155.296C459.067 165.819 458.043 176.276 456.778 186.712C454.498 205.532 447.045 222.293 436.822 238.311C431.562 246.553 425.391 254.895 416.845 260.038C412.912 262.406 408.179 262.803 404.294 264.843C399.769 267.218 402.233 265.298 400.194 270.013C397.363 276.558 396.457 285.003 395.147 291.987C389.132 324.05 374.568 493.54 377.093 526.153C377.317 529.044 373.287 529.735 373.085 526.206C372.016 507.495 381.27 377.918 385.94 335.542C390.609 293.166 395.334 255.73 400.071 241.069C405.819 223.283 416.199 201.893 424.84 185.307C428.854 177.601 433.229 170.161 438.223 163.04Z" fill="#69A1AC"/>
<path fill-rule="evenodd" clip-rule="evenodd" d="M469.414 370.873C480.349 362.845 492.186 377.996 482.29 386.026C476.82 390.464 471.101 388.885 467.882 385.187C465.792 387.734 463.836 390.398 461.956 392.648C456.229 399.504 450.817 406.523 445.644 413.707C434.898 428.63 425.689 444.396 416.06 459.874C406.558 475.149 397.132 490.503 388.519 506.166C381.223 519.436 371.498 535.047 369 549.595C372.79 518.742 387.172 489.086 404.298 461.886C421.285 434.909 440.779 405.448 467.081 384.159C464.404 380.222 464.33 374.603 469.414 370.873Z" fill="#C1DEE2"/>
<path fill-rule="evenodd" clip-rule="evenodd" d="M261.913 295.626C268.032 296.823 278.031 310.666 283.075 315.94C289.07 322.207 294.508 328.888 299.635 335.887C310.671 350.953 320.541 366.971 328.934 383.675C342.616 410.906 353.578 438.86 361.533 468.513C366.403 486.665 369.556 505.478 371.424 524.16C371.777 527.684 375.471 554.848 370.148 555.58C365.361 556.24 366.84 534.954 366.609 532.059C363.998 499.393 356.177 467.61 345.299 436.821C342.929 430.114 340.728 421.9 336.938 415.864C334.209 411.516 336.919 413.033 332.123 411.387C328.005 409.974 323.313 410.319 319.096 408.589C309.936 404.832 302.601 397.539 296.171 390.203C283.676 375.947 273.774 360.523 268.613 342.256C265.749 332.127 263.118 321.939 261.658 311.497C261.281 308.798 257.972 294.855 261.913 295.626Z" fill="#69A1AC"/>
<path fill-rule="evenodd" clip-rule="evenodd" d="M286.061 65.3114C309.111 105.286 328.053 149.197 340.283 193.672C347.694 220.618 352.876 248.27 358.025 275.722C365.997 318.227 373.538 360.73 375.683 403.99C377.841 447.502 382.108 497.687 367.861 539.595C374.978 497.047 368.202 451.758 367.002 408.945C366.429 388.507 364.768 368.269 362.588 347.951C360.473 328.24 357.018 308.624 353.801 289.069C352.234 279.545 350.588 270.036 348.912 260.532C348.411 257.696 348.2 249.282 346.401 247.345C344.591 245.395 335.354 244.6 332.454 243.17C326.615 240.288 321.122 236.195 316.261 231.87C306.942 223.579 298.835 212.746 292.436 202.068C277.631 177.359 271.712 147.205 272.011 118.589C272.068 113.034 281.003 53.2053 277.415 52.3814C277.631 52.1284 277.835 51.8671 278.028 51.5953C280.745 56.1441 283.411 60.7237 286.061 65.3114Z" fill="#89C5CC"/>
<path fill-rule="evenodd" clip-rule="evenodd" d="M534.846 209.483C535.202 208.97 537.517 205.402 536.351 205.63C538.724 205.166 533.087 209.565 539 206.866C536.192 209.517 537.813 212.962 537.85 216.531C537.911 222.325 536.942 228.072 535.851 233.742C534.126 242.704 531.557 251.418 527.828 259.755C519.701 277.921 505.901 295.409 489.518 306.767C481.43 312.375 473.504 314.284 464.28 316.865C458.453 318.496 457.991 321.51 454.898 327.164C448.46 338.94 442.136 350.674 436.457 362.847C429.677 377.383 423.095 391.935 416.886 406.727C395.969 456.553 378.945 508.173 370.005 561.595C369.786 530.114 377.069 497.691 386.255 467.684C392.947 445.821 401.658 424.746 410.95 403.885C413.201 398.831 416.613 392.33 417.57 386.75C418.239 382.841 416.192 379.081 415.255 374.963C411.601 358.925 411.863 340.958 415.071 324.835C418.609 307.056 428.839 298.804 446.145 296.286C452.474 295.365 460.519 295.702 466.322 293.004C472.645 290.065 475.253 280.406 478.849 274.205C488.506 257.549 499.98 241.574 513.155 227.54C516.803 223.654 520.726 220.069 524.888 216.745C527.513 214.649 533.058 212.066 534.846 209.483Z" fill="#89C5CC"/>
<path fill-rule="evenodd" clip-rule="evenodd" d="M340.792 527.595H402.209C404.97 527.595 407.209 529.834 407.209 532.595C407.209 532.839 407.191 533.083 407.155 533.325L402.408 565.513C400.961 575.326 392.541 582.595 382.622 582.595H360.378C350.459 582.595 342.039 575.326 340.592 565.513L335.845 533.325C335.442 530.593 337.33 528.052 340.062 527.649C340.304 527.613 340.548 527.595 340.792 527.595Z" fill="#C1DEE2"/>
</g>
<defs>
<clipPath id="clip0_315_72">
<rect width="336" height="452" fill="white" transform="translate(0 296)"/>
</clipPath>
</defs>
</svg>
